<?xml version="1.0" encoding="UTF-8" standalone="no"?>
<svg width="70px" height="70px" viewBox="0 0 70 70" version="1.1" xmlns="http://www.w3.org/2000/svg" xmlns:xlink="http://www.w3.org/1999/xlink" xmlns:sketch="http://www.bohemiancoding.com/sketch/ns">
    <!-- Generator: Sketch 3.3.2 (12043) - http://www.bohemiancoding.com/sketch -->
    <title>Rectangle-path + Shape</title>
    <desc>Created with Sketch.</desc>
    <defs></defs>
    <g id="Page-1" stroke="none" stroke-width="1" fill="none" fill-rule="evenodd" sketch:type="MSPage">
        <g id="Rectangle-path-+-Shape" sketch:type="MSLayerGroup">
            <rect id="Rectangle-path" fill="#F63C3C" sketch:type="MSShapeGroup" x="0" y="0" width="70" height="70"></rect>
            <path d="M44.43,30.597 L43.687,26.29 L39.765,26.29 L39.082,30.597 L36.408,30.597 L39.706,12 L43.598,12 L47.133,30.597 L44.43,30.597 L44.43,30.597 Z M41.637,14.318 L40.092,24.121 L43.33,24.121 L41.637,14.318 L41.637,14.318 Z M27.941,52.909 L24.763,52.909 C22.921,52.909 22,52.028 22,50.265 L22,36.896 C22,35.154 22.921,34.282 24.763,34.282 L27.941,34.282 C29.783,34.282 30.704,35.154 30.704,36.896 L30.704,39.718 L28.001,39.718 L28.001,37.252 C28.001,36.896 27.941,36.663 27.823,36.554 C27.704,36.446 27.466,36.391 27.11,36.391 L25.595,36.391 C25.238,36.391 25,36.446 24.881,36.554 C24.763,36.663 24.703,36.896 24.703,37.252 L24.703,49.938 C24.703,50.294 24.763,50.527 24.881,50.636 C25,50.745 25.238,50.799 25.595,50.799 L27.11,50.799 C27.466,50.799 27.704,50.745 27.823,50.636 C27.941,50.527 28.001,50.294 28.001,49.938 L28.001,45.393 L26.515,45.393 L26.515,43.313 L30.704,43.313 L30.704,50.265 C30.704,52.028 29.783,52.909 27.941,52.909 L27.941,52.909 Z M27.733,30.597 L24.852,30.597 C23.01,30.597 22.089,29.726 22.089,27.983 L22.089,25.25 L24.792,25.25 L24.792,27.568 C24.792,27.924 24.852,28.157 24.971,28.266 C25.089,28.375 25.327,28.429 25.684,28.429 L26.931,28.429 C27.288,28.429 27.52,28.375 27.63,28.266 C27.738,28.157 27.793,27.924 27.793,27.568 L27.793,23.022 C27.793,22.666 27.738,22.433 27.63,22.324 C27.52,22.216 27.288,22.161 26.931,22.161 L24.733,22.161 C22.93,22.161 22.029,21.28 22.029,19.517 L22.029,14.614 C22.029,12.872 22.95,12 24.792,12 L27.704,12 C29.546,12 30.467,12.872 30.467,14.614 L30.467,17.348 L27.763,17.348 L27.763,15.031 C27.763,14.674 27.704,14.442 27.585,14.332 C27.466,14.223 27.228,14.169 26.872,14.169 L25.624,14.169 C25.268,14.169 25.03,14.223 24.911,14.332 C24.792,14.442 24.733,14.674 24.733,15.031 L24.733,19.16 C24.733,19.517 24.792,19.75 24.911,19.858 C25.03,19.968 25.268,20.021 25.624,20.021 L27.793,20.021 C29.615,20.021 30.526,20.894 30.526,22.636 L30.526,27.983 C30.526,29.726 29.595,30.597 27.733,30.597 L27.733,30.597 Z M45.93,58.246 L22.163,58.246 L22.163,55.869 L45.93,55.869 L45.93,58.246 L45.93,58.246 Z M45.974,50.71 L45.974,52.879 L37.894,52.879 L37.894,34.282 L45.766,34.282 L45.766,36.45 L40.597,36.45 L40.597,42.184 L44.875,42.184 L44.875,44.353 L40.597,44.353 L40.597,50.71 L45.974,50.71 L45.974,50.71 Z" id="Shape" fill="#FFFFFF" sketch:type="MSShapeGroup"></path>
        </g>
    </g>
</svg>
